<svg xmlns="http://www.w3.org/2000/svg" xmlns:xlink="http://www.w3.org/1999/xlink" width="280" height="280" viewBox="0 0 280 280"><defs><clipPath id="a"><rect width="280" height="280" transform="translate(1667 7824)" fill="#fff" stroke="#707070" stroke-width="1"/></clipPath><clipPath id="b"><rect width="460.833" height="245" fill="#fff" stroke="#707070" stroke-width="1"/></clipPath><clipPath id="c"><rect width="497.157" height="269.375" fill="none"/></clipPath></defs><g transform="translate(-1667 -7824)" clip-path="url(#a)"><g transform="translate(1550.333 7841.5)" clip-path="url(#b)"><g transform="translate(47.303 -34.366)"><g clip-path="url(#c)"><path d="M270.139,281.265s9.184,19.709-6.605,24.164-42.757-41.643-60.576-38.245c-16.742,3.193-17.435,20.063-6.013,26.22s18.673-5.575,12.048-9.063a5,5,0,0,0-5.564.732,3.519,3.519,0,0,1-5.6-3.329c.357-2.148,1.859-4.334,5.716-5.883,10.5-4.217,23.7,16.736,41.171,31.484s42.9,8.357,34.246-26.841Z" transform="translate(-47.151 -66.528)" fill="#6d4c33"/><path d="M308.09,297.936s-1.179,29.462,13.369,30.122c0,0-.158,16.471,7.514,13.5l6.4-20.291s-12.929-1.16-12.691-30.132Z" transform="translate(-76.759 -72.539)" fill="#6d4c33"/><path d="M326.367,334.676c-.374-.4-.608-.7-.608-.7s.258.279.608.7" transform="translate(-81.167 -83.215)" fill="#f7c754"/><path d="M328.095,336.966c.959-.546-.725-2.783-1.691-3.937.848.9,2.421,2.319,3.651,1.926,1.77-.568-2.159-4.193-2.159-4.193s4.679,2.408,6.415.712-2.944-4.1-2.944-4.1l3.362.162a9.55,9.55,0,0,0,5.086,2.759l-6.4,20.292c-7.222,2.8-7.506-11.629-7.514-13.33a5.088,5.088,0,0,0,2.192-.288" transform="translate(-81.203 -81.569)" fill="#f8e0cb"/><path d="M333.457,355.291q.324,0,.659-.033l-.106-1.154a3.972,3.972,0,0,1-3.312-1.026c-2.175-2.116-1.9-6.682-1.9-6.727l-1.158-.077c-.014.208-.309,5.151,2.245,7.637a4.938,4.938,0,0,0,3.569,1.382" transform="translate(-81.632 -86.279)" fill="#54361f"/><path d="M335.8,351.584l.306-1.12a2.637,2.637,0,0,1-1.674-1.339c-1.611-2.894.147-8.891.165-8.951l-1.113-.333c-.078.266-1.913,6.526-.067,9.848a3.8,3.8,0,0,0,2.384,1.9" transform="translate(-82.87 -84.676)" fill="#54361f"/><path d="M183.7,185.136s-4.314-26.619-36.735-18.1c-30.3,7.956-23.847,85.648,42.988,49.274Z" transform="translate(-32.297 -41.2)" fill="#6d4c33"/><path d="M188.186,185.906s-22.1-23.28-44.01-7.041.1,62.678,45.355,32.272Z" transform="translate(-33.794 -43.132)" fill="#f8e0cb"/><path d="M322.581,129.884S306.7,108.095,335.552,91.038c26.966-15.941,77.652,43.294,4.787,65.214Z" transform="translate(-79.289 -22.013)" fill="#6d4c33"/><path d="M320.125,133.3s-1-32.085,25.951-36.234,44.481,44.16-8.964,54.937Z" transform="translate(-79.762 -24.122)" fill="#f8e0cb"/><path d="M329.923,271.227a27.273,27.273,0,0,0-1.028-38.362c-10.339-9.976-18.814-12.89-25.335-14.267-11.728-2.477-24.45,9.886-27.717,20.148-4.532,14.235,15.327,55.043,36.314,45.243a58.5,58.5,0,0,0,17.766-12.763" transform="translate(-68.568 -54.387)" fill="#6d4c33"/><path d="M273.792,261.916s-21.056,15.539-17.5,31.362c0,0,7.916,5.835,5.5,8.107s-8.388-3.663-8.388-3.663,5.321,8.508.656,12.654-14.853-4.108-11.144-19.137c0,0,3.45-27.508,23.786-38.13Z" transform="translate(-60.326 -63.066)" fill="#6d4c33"/><path d="M242.912,302.77s.008-.061.02-.146a12.945,12.945,0,0,0,3.1-3.236s-1.1,5.281,1.419,5.671,2.732-3.939,2.732-3.939.524,3.295,2.084,3.594,1.558-3.03,1.558-3.03a4.03,4.03,0,0,0,2.222,1.753c.064.457.14.913.243,1.37,0,0,7.916,5.835,5.5,8.108s-8.389-3.663-8.389-3.663,5.323,8.508.657,12.654S239.2,317.8,242.912,302.77" transform="translate(-60.326 -74.597)" fill="#f8e0cb"/><path d="M255.788,326.4l1.144-1.044c-2.91-3.187-4.034-9.97-4.044-10.036l-1.528.245c.047.3,1.207,7.3,4.428,10.835" transform="translate(-62.63 -78.565)" fill="#54361f"/><path d="M250.4,328.359l.791-1.33c-3.938-2.346-3.612-8.66-3.609-8.726l-1.544-.094c-.019.3-.394,7.319,4.362,10.151" transform="translate(-61.3 -79.286)" fill="#54361f"/><path d="M310.156,251.212c-18.351,8.149-4.952,42.821,15.308,31.794,23.864-12.987,3.043-39.943-15.308-31.794" transform="translate(-75.114 -62.218)" fill="#f8e0cb"/><path d="M221.741,107.816c-.952-5.837-.982-13.371,4.232-16.31,7.858-4.43,6.942,6.794,6.577,9.753.449-3.036,2.55-15.024,7.827-15.622,5.333-.6,3.031,11.471,2.415,14.324a.118.118,0,0,0,.026-.008c.562-1.949,2.739-7.96,8.038-7.027,2.539.447,2.552,2.364,1.663,4.493,62.585-14.882,93.611,75.835,51.915,97.658-30.916,16.182-92.881,46.1-113.81-6.122-15.776-39.367-2.557-65.269,31.117-81.138" transform="translate(-45.847 -21.332)" fill="#6d4c33"/><path d="M271.279,111.5c-21.568,3.886-23.633,30.416-23.633,30.416s-12.748-23.323-39.511-5.96c-20.834,13.517-7.2,55.37,1,60.121,0,0-13.28,32.019,42.476,23.985s76.716-35.835,73.3-51.96-14.439-14.348-14.439-14.348-6.64-48.122-39.2-42.254" transform="translate(-49.115 -27.657)" fill="#f8e0cb"/><path d="M306.875,176.737h0a16.021,16.021,0,0,0,9.209-20.715l-3-8.032a15.877,15.877,0,1,0-29.75,11.085l3,8.033a16.049,16.049,0,0,0,20.54,9.629" transform="translate(-70.336 -34.229)" fill="#fff"/><path d="M283.338,160.96a16.259,16.259,0,0,1,.8-13.254,11.336,11.336,0,0,1,3.445-2.053c7.249-2.7,15.886,2.5,19.291,11.618s.288,18.7-6.96,21.4a11.186,11.186,0,0,1-2,.52,16.26,16.26,0,0,1-11.577-10.2Z" transform="translate(-70.338 -36.113)"/><path d="M245.473,201.9h0a16.021,16.021,0,0,0,9.209-20.715l-3-8.032a15.877,15.877,0,1,0-29.75,11.086l3,8.032a16.049,16.049,0,0,0,20.54,9.629" transform="translate(-55.037 -40.499)" fill="#fff"/><path d="M221.936,186.122a16.265,16.265,0,0,1,.8-13.254,11.329,11.329,0,0,1,3.446-2.054c7.247-2.7,15.883,2.5,19.29,11.62s.288,18.7-6.96,21.4a11.193,11.193,0,0,1-2,.522,16.259,16.259,0,0,1-11.577-10.2Z" transform="translate(-55.039 -42.383)"/><path d="M218.681,225.042c9.855-9.71,24.772,3.99,12.679,12.493-11.721,8.243-18.848-6.414-12.679-12.493" transform="translate(-53.922 -55.24)" fill="#e9c9ac"/><path d="M326.814,185.085c9.25-10.288,25.054-1.364,15.044,9.515-9.7,10.546-21.818-1.979-15.044-9.515" transform="translate(-80.94 -44.985)" fill="#e9c9ac"/><path d="M284.165,196.19l2.313-.215c-.164-1.772-.422-5.744-.422-5.745l-2.317.149s.261,4.019.426,5.811" transform="translate(-70.697 -47.398)" fill="#54361f"/><path d="M278.311,197.962l1.972-1.223c-.436-.7-3.062-4.034-3.586-4.693l-1.819,1.438c1.178,1.49,3.149,4.023,3.433,4.478" transform="translate(-68.49 -47.851)" fill="#54361f"/><path d="M282.5,209.872a7.422,7.422,0,0,0,3.511-.929c7.574-4.022,3.942-13.6,3.9-13.7l-1.44.562c.132.341,3.165,8.4-3.189,11.774a5.472,5.472,0,0,1-4.459.472c-3.835-1.255-6.346-6.377-6.371-6.427l-1.4.671c.113.234,2.817,5.761,7.279,7.224a6.87,6.87,0,0,0,2.162.354" transform="translate(-68.037 -48.647)" fill="#54361f"/><path d="M350.819,257.335s11.76-9.531,19.616-3,5.086,21,5.086,21,6.2,10.359,1.456,13.526-16.488-10.354-16.488-10.354,4.1-11.6,1.008-12.257-6.984,3.886-6.984,3.886Z" transform="translate(-87.411 -62.802)" fill="#6d4c33"/><path d="M365.635,277.291l.475-.63s.11,3.139,1.228,4.083,1.85-3.116,1.85-3.116-.143,3.871,2.055,4.632,3.448-3.465,3.448-3.465.659,2.311,1.54,2.518.858-2.147.858-2.147l1.643,2.311s6.2,10.357,1.454,13.525S363.7,284.648,363.7,284.648a50.64,50.64,0,0,0,1.936-7.357" transform="translate(-90.621 -68.934)" fill="#f8e0cb"/><path d="M379.379,298.382c2.012-3.651-4.236-9.029-4.3-9.081l-.722.911c.71.562,5.368,5.139,4.006,7.612Z" transform="translate(-93.276 -72.083)" fill="#54361f"/><path d="M384.182,298.454c3.663-3.235-1.945-10.065-2.186-10.354l-.891.742c1.435,1.729,4.653,6.672,2.31,8.741Z" transform="translate(-94.957 -71.784)" fill="#54361f"/><path d="M349.252,230.377s20.477-18.19,15.319-43.585c0,0,5.441-10.624,1.377-14.851s-13.062-4.5-14.867.293,4.926,14.46,4.926,14.46-6.455,25.278-22.6,34.433Z" transform="translate(-83.072 -42.036)" fill="#6d4c33"/><path d="M368.055,178.311s-.785,3.3,2.313,2.245,4.55-12.568-5.019-12.082-11.954,7.827-4.239,11.263c0,0,1.937,1.7,2.421-.848,0,0,.421,3.213,2.391,2.393a3.694,3.694,0,0,0,2.132-2.972" transform="translate(-88.83 -41.974)" fill="#f8e0cb"/><path d="M361.773,186.694s-6.733-9.67-4.928-14.46,10.8-4.521,14.867-.294-1.376,14.853-1.376,14.853a41.4,41.4,0,0,1,.729,5.528c-.843-.707-1.576-3.6-1.576-3.6s.46,5.179-1.544,5.156-2.714-4.724-2.714-4.724.143,5.015-1.05,4.2-.789-4.54-.789-4.54-.432,4.28-3.623,4.055c1.369-3.691,2-6.174,2-6.174" transform="translate(-88.836 -42.035)" fill="#f8e0cb"/><path d="M366.321,183.635c.048,0,.094,0,.142-.007a2.821,2.821,0,0,0,1.959-1.668,2.174,2.174,0,0,0,.728.827,1.986,1.986,0,0,0,1.911.072c2.507-1.031,2.32-6.087,2.289-6.661l-1.159.062c.062,1.238-.089,4.916-1.569,5.524-.547.224-.77.081-.844.029-.5-.321-.655-1.4-.67-1.758a.581.581,0,0,0-.52-.554.56.56,0,0,0-.624.438c-.2.789-.853,2.445-1.632,2.534a.079.079,0,0,1-.022,0c-.5,0-1.506-1.816-2.095-3.789a.581.581,0,0,0-1.114.327,3.592,3.592,0,0,1-.025,2.416.667.667,0,0,1-.55.276c-.441.069-.882-.336-1.168-.653a7.825,7.825,0,0,1-1.736-5.3l-1.144-.2a8.937,8.937,0,0,0,2.02,6.282,2.6,2.6,0,0,0,2.116,1.032,1.826,1.826,0,0,0,1.415-.776,1.922,1.922,0,0,0,.18-.321c.548,1,1.264,1.867,2.112,1.867" transform="translate(-89.305 -43.741)" fill="#54361f"/></g></g></g></g></svg>