<svg xmlns="http://www.w3.org/2000/svg" xmlns:xlink="http://www.w3.org/1999/xlink" width="280" height="280" viewBox="0 0 280 280"><defs><clipPath id="a"><rect width="280" height="280" transform="translate(3286 7484)" fill="#fff" stroke="#707070" stroke-width="1"/></clipPath><clipPath id="b"><rect width="192.969" height="177.546" fill="none"/></clipPath></defs><g transform="translate(-3286 -7484)" clip-path="url(#a)"><g transform="matrix(0.951, 0.309, -0.309, 0.951, 3373.914, 7487.304)"><rect width="215.13" height="231.428" transform="translate(-16.192 -10.823)" fill="none"/><path d="M190.89,96.549a4.686,4.686,0,0,0-.594-.322c.787-5.646.878-10.466-.443-14.368-2.108-6.257-9.882-10.939-18.384-12.709C164.712,34.469,160.393,10.9,142.591,3.018c-19.579-8.7-60.543,4.164-60.543,4.164l-.054.153c-31.3,5.574-64.9,16.4-69.671,25.924-1.165,2.31-1.684,6.08-1.713,10.887a19.774,19.774,0,0,0-4.379,2.511C.908,50.99-.634,56.249.222,63.289,1.7,75.369,10.747,78.327,14.709,77.627l.08-.014c.4,2.014.837,4.04,1.281,6.087A18.088,18.088,0,0,0,13.1,85.532c-5.32,4.352-6.863,9.612-6.009,16.633,1.485,12.1,10.525,15.038,14.491,14.356A8.418,8.418,0,0,0,24.3,115.49q1.405,4.655,2.828,9.063A13.149,13.149,0,0,0,25.2,126.2c-4.739,4.986-5.6,10.389-3.857,17.253,2.988,11.813,12.334,13.594,16.189,12.4a7.45,7.45,0,0,0,1.63-.717c3.138,6.883,7.488,15.656,10.734,19.108,5.666,6.047,26.189,2.972,58.465-2.734a335.245,335.245,0,0,0,37.9-8.541c.056.061.113.126.169.187,1.759,1.875,3.518,3.159,5.124,3.444,1.769.314,4.148-.43,6.762-1.78a49.576,49.576,0,0,0,6.349-4.032c6.121-4.5,11.96-10.263,13.387-12.314a12.016,12.016,0,0,0,1.081-2.008c2.974-6.622,5.773-21.911,8.106-33.637.391-1.966.781-3.87,1.15-5.716,4.8-.861,6.158-8.318,2.508-10.569M9.758,64.526a3.806,3.806,0,0,1,2.091-4.353c.272,2.118.6,4.308.954,6.554-1.571-.336-2.826-.85-3.045-2.2m6.876,38.895c-.387-2.3.532-3.691,2.985-4.839.616,2.445,1.252,4.887,1.928,7.322-2.372-.357-4.627-.633-4.913-2.483M30.95,143.493a3.743,3.743,0,0,1,1.342-4.426c.882,2.213,1.723,4.313,2.575,6.246-1.894-.073-3.493-.342-3.918-1.82" transform="translate(-4.803 13.094)" fill="#e1e1e1"/><path d="M62.811,183.545c-5.335,0-12.932-.539-17.3-5.2-1.014-1.078-3.9-4.149-9.7-16.189-7.127.276-16.98-4.121-20.3-17.234-2.247-8.843-.7-16.12,4.728-22.209l-.033-.105c-6.789-.106-17.322-5.4-19.079-19.716C.109,94.423,2.187,87.733,7.486,82.517,1.657,80.251-4.435,74.6-5.733,64.02-6.877,54.612-4.2,47.413,2.444,42a18.674,18.674,0,0,1,2.289-1.583,25.514,25.514,0,0,1,2.234-9.864C15.1,14.307,69.02,3.624,79.716,1.651l.535-.193C81.221,1.154,104.241-6,124.66-6c8.233,0,15.086,1.189,20.367,3.535C165,6.374,170.078,30.648,176.637,64.3c7.937,2.467,16.177,7.557,18.9,15.644,1.273,3.76,1.627,8.1,1.092,13.786a11.857,11.857,0,0,1,2.1,9.57,12.369,12.369,0,0,1-5.074,7.995l-1.333,6.7c-2.251,11.444-4.8,24.414-7.728,30.93a17.736,17.736,0,0,1-1.617,2.959c-1.986,2.854-8.387,9.043-14.77,13.738a55.722,55.722,0,0,1-7.154,4.531,19.155,19.155,0,0,1-8.655,2.519h-.529l-1.377-.164a13.1,13.1,0,0,1-5.842-2.819c-9.461,2.679-21.042,5.217-35.253,7.73C90.449,180.772,73.861,183.545,62.811,183.545ZM43.994,151.671l.625.979c5.775,12.667,8.669,16.448,9.645,17.486.021.023,1.4,1.409,8.547,1.409,10.077,0,26.116-2.69,44.5-5.941,15.453-2.732,27.621-5.472,37.2-8.375l3.585-1.087,2.55,2.744a9.532,9.532,0,0,0,2.072,1.818,24.125,24.125,0,0,0,2.836-1.213,43.487,43.487,0,0,0,5.558-3.542,75.205,75.205,0,0,0,12.007-10.9,6.055,6.055,0,0,0,.5-.973c2.392-5.329,4.908-18.119,6.93-28.4l2.747-13.749,3.626-.65-3.242-1.488.668-4.4c.746-5.352.688-9.042-.183-11.615-1.252-3.715-6.976-7.313-13.924-8.759l-3.9-.813-1.092-5.6c-6.286-32.289-10.44-53.62-25.089-60.1C136.418,6.842,131.2,6,124.66,6,110,6,93.235,10.247,86.679,12.081l-.14.4-3.493.765c-38.166,6.8-62.871,17.739-65.358,22.7-.25.5-1.044,2.509-1.078,8.236l-.023,3.887L13.03,49.637a13.586,13.586,0,0,0-2.988,1.654,9.872,9.872,0,0,0-3.768,5.694A11.64,11.64,0,0,1,8.8,55.006l7.842-4.631,1.16,9.034c.265,2.061.582,4.193.929,6.379l1.185,7.482.761,3.183c.389,1.97.819,3.952,1.253,5.953l.978,4.507-4.1,2.127a12.01,12.01,0,0,0-1.944,1.169,9.813,9.813,0,0,0-3.72,5.675,12.873,12.873,0,0,1,3.933-2.736l6.585-3.082,1.776,7.05c.6,2.4,1.228,4.795,1.891,7.184l2.45,8.833.269.623q1.388,4.6,2.794,8.954l1.348,4.176-3.571,2.55a7.148,7.148,0,0,0-1.041.866,9.926,9.926,0,0,0-3.034,6.161,11.344,11.344,0,0,1,1.929-2.022l6.348-5.241,3.046,7.648c.853,2.142,1.666,4.174,2.491,6.044l3.878,8.789Z" transform="translate(-4.803 13.094)" fill="#fff"/><g transform="translate(-4.804 13.094)"><g transform="translate(0)" clip-path="url(#b)"><path d="M160.678,137.65c-12.285,12.224-105.13,36.973-118.883,21.015A29.308,29.308,0,0,1,39,154.643c2.344-1.538,4.25-4.388,2.247-7.63-1.288-2.082-4.408-1.816-7-1.91-.853-1.934-1.694-4.033-2.575-6.247a24.718,24.718,0,0,1,6.535-3.259c6.508-2.479,12.51-6.789,9.584-12.708-3.736-7.615-15.716-2.677-21.279,1.452q-1.423-4.406-2.828-9.063c2.3-1.305,4.178-3.763,2.684-7.013-.839-1.854-3.2-2.255-5.441-2.573-.675-2.434-1.312-4.876-1.928-7.321a34.692,34.692,0,0,1,5.791-1.8c6.779-1.647,13.271-5.145,11.126-11.385-2.642-7.666-14.19-4.91-20.467-1.7-.444-2.047-.884-4.074-1.281-6.088,3.064-.582,7.362-3.549,5.326-8.011-1.1-2.4-4.663-2.343-7.312-2.876-.356-2.246-.682-4.436-.954-6.554a26.613,26.613,0,0,1,6.686-2.284C24.7,56.049,31.19,52.551,29.044,46.31c-2.445-7.127-12.6-5.252-19.054-2.374.029-4.806.548-8.576,1.713-10.887C16.475,23.522,50.075,12.7,81.374,7.125c25.236-4.5,48.977-5.551,54.856.315,13.146,13.1,36.729,117.965,24.447,130.21" transform="translate(0.62 0.21)" fill="#3ec0f5"/><path d="M170.171,150.6c-10.716,8.964-31.843,15.212-64.1,20.914-32.277,5.705-52.8,8.781-58.466,2.734-3.246-3.452-7.6-12.224-10.733-19.108.148-.088.3-.175.441-.283l.019,0a29.308,29.308,0,0,0,2.8,4.022c13.753,15.959,106.6-8.791,118.882-21.015,12.282-12.246-11.3-117.107-24.447-130.211-5.878-5.867-29.621-4.816-54.856-.314l.054-.153S120.723-5.678,140.3,3.019c19.595,8.673,22.854,36.355,31.01,76.945,8.176,40.586,9.6,61.687-1.143,70.634" transform="translate(2.288 0)" fill="#00a0d1"/><path d="M34.389,42c4.295-6.568,91.759-22.3,97.032-17.979s11.868,40.226,8.212,44.374S49.06,92.03,44.025,87.715,31.96,45.713,34.389,42" transform="translate(2.103 1.445)" fill="#9fd3f0"/><path d="M18.535,55.457a26.591,26.591,0,0,0-6.687,2.286A3.806,3.806,0,0,0,9.758,62.1c.218,1.351,1.474,1.865,3.045,2.2,2.649.533,6.214.475,7.312,2.876,2.036,4.463-2.262,7.429-5.326,8.011l-.08.015C10.747,75.9,1.7,72.94.222,60.86c-.857-7.04.686-12.3,6.009-16.632a19.774,19.774,0,0,1,4.379-2.511c6.458-2.878,16.61-4.755,19.054,2.373,2.145,6.242-4.347,9.739-11.129,11.367" transform="translate(0 2.43)" fill="#d6c7b6"/><path d="M25.009,92.08a34.7,34.7,0,0,0-5.791,1.8c-2.452,1.149-3.372,2.537-2.985,4.839.286,1.85,2.542,2.125,4.913,2.483,2.243.319,4.6.719,5.441,2.573,1.494,3.25-.38,5.706-2.684,7.013a8.421,8.421,0,0,1-2.719,1.032c-3.966.681-13.006-2.258-14.491-14.357-.853-7.021.689-12.28,6.009-16.633A18.093,18.093,0,0,1,15.668,79c6.277-3.214,17.824-5.97,20.467,1.7,2.145,6.242-4.347,9.739-11.126,11.386" transform="translate(0.402 4.702)" fill="#d6c7b6"/><path d="M29.752,136.532c.425,1.478,2.025,1.747,3.918,1.82,2.591.093,5.711-.172,7,1.91,2,3.242.1,6.093-2.247,7.631l-.02,0a5.132,5.132,0,0,1-.441.283,7.447,7.447,0,0,1-1.63.717c-3.855,1.193-13.2-.588-16.189-12.4C18.4,129.63,19.26,124.226,24,119.242a13.152,13.152,0,0,1,1.936-1.65c5.563-4.13,17.543-9.068,21.279-1.453,2.926,5.919-3.076,10.229-9.584,12.708a24.748,24.748,0,0,0-6.535,3.259,3.744,3.744,0,0,0-1.342,4.427" transform="translate(1.198 6.961)" fill="#d6c7b6"/><path d="M4.218,54.583a1.462,1.462,0,0,1-1.683-1.74,11.6,11.6,0,0,1,4.609-7.018,1.461,1.461,0,0,1,1.688,2.386,8.653,8.653,0,0,0-3.438,5.233,1.461,1.461,0,0,1-1.176,1.139" transform="translate(0.155 2.827)" fill="#fff"/><path d="M11.4,90.811a1.462,1.462,0,0,1-1.675-1.778A14.587,14.587,0,0,1,13.7,82.038a1.461,1.461,0,0,1,2.037,2.1,11.631,11.631,0,0,0-3.169,5.577,1.461,1.461,0,0,1-1.167,1.1" transform="translate(0.601 5.066)" fill="#fff"/><path d="M23.545,130.426q-.075.013-.153.019a1.46,1.46,0,0,1-1.56-1.354,9.93,9.93,0,0,1,3.462-8.174,1.461,1.461,0,1,1,1.879,2.238,6.959,6.959,0,0,0-2.427,5.729,1.461,1.461,0,0,1-1.2,1.542" transform="translate(1.353 7.483)" fill="#fff"/><path d="M154.2,144.111a1.461,1.461,0,0,1-.956-2.721A19.92,19.92,0,0,0,163,119.062a1.461,1.461,0,0,1,2.834-.712,22.842,22.842,0,0,1-11.192,25.6,1.444,1.444,0,0,1-.447.157" transform="translate(9.463 7.276)" fill="#fff"/><path d="M160.678,137.65c-12.285,12.224-105.13,36.973-118.883,21.015A29.308,29.308,0,0,1,39,154.643c2.344-1.538,4.25-4.388,2.247-7.63-1.288-2.082-4.408-1.816-7-1.91-.853-1.934-1.694-4.033-2.575-6.247a24.718,24.718,0,0,1,6.535-3.259c6.508-2.479,12.51-6.789,9.584-12.708-3.736-7.615-15.716-2.677-21.279,1.452q-1.423-4.406-2.828-9.063c2.3-1.305,4.178-3.763,2.684-7.013-.839-1.854-3.2-2.255-5.441-2.573-.675-2.434-1.312-4.876-1.928-7.321a34.692,34.692,0,0,1,5.791-1.8c6.779-1.647,13.271-5.145,11.126-11.385-2.642-7.666-14.19-4.91-20.467-1.7-.444-2.047-.884-4.074-1.281-6.088,3.064-.582,7.362-3.549,5.326-8.011-1.1-2.4-4.663-2.343-7.312-2.876-.356-2.246-.682-4.436-.954-6.554a26.613,26.613,0,0,1,6.686-2.284C24.7,56.049,31.19,52.551,29.044,46.31c-2.445-7.127-12.6-5.252-19.054-2.374.029-4.806.548-8.576,1.713-10.887C16.475,23.522,50.075,12.7,81.374,7.125c25.236-4.5,48.977-5.551,54.856.315,13.146,13.1,36.729,117.965,24.447,130.21" transform="translate(0.62 0.21)" fill="#3ec0f5"/><path d="M170.171,150.6c-10.716,8.964-31.843,15.212-64.1,20.914-32.277,5.705-52.8,8.781-58.466,2.734-3.246-3.452-7.6-12.224-10.733-19.108.148-.088.3-.175.441-.283l.019,0a29.308,29.308,0,0,0,2.8,4.022c13.753,15.959,106.6-8.791,118.882-21.015,12.282-12.246-11.3-117.107-24.447-130.211-5.878-5.867-29.621-4.816-54.856-.314l.054-.153S120.723-5.678,140.3,3.019c19.595,8.673,22.854,36.355,31.01,76.945,8.176,40.586,9.6,61.687-1.143,70.634" transform="translate(2.288 0)" fill="#00a0d1"/><path d="M34.389,42c4.295-6.568,91.759-22.3,97.032-17.979s11.868,40.226,8.212,44.374S49.06,92.03,44.025,87.715,31.96,45.713,34.389,42" transform="translate(2.103 1.445)" fill="#9fd3f0"/><path d="M18.535,55.457a26.591,26.591,0,0,0-6.687,2.286A3.806,3.806,0,0,0,9.758,62.1c.218,1.351,1.474,1.865,3.045,2.2,2.649.533,6.214.475,7.312,2.876,2.036,4.463-2.262,7.429-5.326,8.011l-.08.015C10.747,75.9,1.7,72.94.222,60.86c-.857-7.04.686-12.3,6.009-16.632a19.774,19.774,0,0,1,4.379-2.511c6.458-2.878,16.61-4.755,19.054,2.373,2.145,6.242-4.347,9.739-11.129,11.367" transform="translate(0 2.43)" fill="#d6c7b6"/><path d="M25.009,92.08a34.7,34.7,0,0,0-5.791,1.8c-2.452,1.149-3.372,2.537-2.985,4.839.286,1.85,2.542,2.125,4.913,2.483,2.243.319,4.6.719,5.441,2.573,1.494,3.25-.38,5.706-2.684,7.013a8.421,8.421,0,0,1-2.719,1.032c-3.966.681-13.006-2.258-14.491-14.357-.853-7.021.689-12.28,6.009-16.633A18.093,18.093,0,0,1,15.668,79c6.277-3.214,17.824-5.97,20.467,1.7,2.145,6.242-4.347,9.739-11.126,11.386" transform="translate(0.402 4.702)" fill="#d6c7b6"/><path d="M29.752,136.532c.425,1.478,2.025,1.747,3.918,1.82,2.591.093,5.711-.172,7,1.91,2,3.242.1,6.093-2.247,7.631l-.02,0a5.132,5.132,0,0,1-.441.283,7.447,7.447,0,0,1-1.63.717c-3.855,1.193-13.2-.588-16.189-12.4C18.4,129.63,19.26,124.226,24,119.242a13.152,13.152,0,0,1,1.936-1.65c5.563-4.13,17.543-9.068,21.279-1.453,2.926,5.919-3.076,10.229-9.584,12.708a24.748,24.748,0,0,0-6.535,3.259,3.744,3.744,0,0,0-1.342,4.427" transform="translate(1.198 6.961)" fill="#d6c7b6"/><path d="M4.218,54.583a1.462,1.462,0,0,1-1.683-1.74,11.6,11.6,0,0,1,4.609-7.018,1.461,1.461,0,0,1,1.688,2.386,8.653,8.653,0,0,0-3.438,5.233,1.461,1.461,0,0,1-1.176,1.139" transform="translate(0.155 2.827)" fill="#fff"/><path d="M11.4,90.811a1.462,1.462,0,0,1-1.675-1.778A14.587,14.587,0,0,1,13.7,82.038a1.461,1.461,0,0,1,2.037,2.1,11.631,11.631,0,0,0-3.169,5.577,1.461,1.461,0,0,1-1.167,1.1" transform="translate(0.601 5.066)" fill="#fff"/><path d="M23.545,130.426q-.075.013-.153.019a1.46,1.46,0,0,1-1.56-1.354,9.93,9.93,0,0,1,3.462-8.174,1.461,1.461,0,1,1,1.879,2.238,6.959,6.959,0,0,0-2.427,5.729,1.461,1.461,0,0,1-1.2,1.542" transform="translate(1.353 7.483)" fill="#fff"/><path d="M154.2,144.111a1.461,1.461,0,0,1-.956-2.721A19.92,19.92,0,0,0,163,119.062a1.461,1.461,0,0,1,2.834-.712,22.842,22.842,0,0,1-11.192,25.6,1.444,1.444,0,0,1-.447.157" transform="translate(9.463 7.276)" fill="#fff"/><path d="M181.947,92.232c-4.294-2.055-16.016-3.012-24.907-4.55-4.49-.777-18.427-3.75-22.5-3.75,1.636-7.923,4.32-14.607,10.932-17.564,12.022-5.385,32.4.737,36.03,11.5,1.321,3.9,1.229,8.722.443,14.368" transform="translate(8.349 3.995)" fill="#f3587f"/><path d="M180.288,101.979c-3.6.643-18.953-2.18-25.154-3.282-5.458-.97-17.718-3.552-22.054-5.376a5.384,5.384,0,0,1-1.273-.681c-2.649-2.134-1.414-9.839,2.928-9.853.02,0,.042,0,.063,0,4.07,0,18.007,2.973,22.5,3.749,8.89,1.539,20.612,2.5,24.907,4.551a4.762,4.762,0,0,1,.594.322c3.65,2.251,2.294,9.707-2.509,10.569" transform="translate(8.093 5.138)" fill="#d4d4d4"/><path d="M180.527,101.364c-.37,1.846-.759,3.75-1.15,5.716-2.331,11.725-5.131,27.016-8.106,33.636a8.1,8.1,0,0,1-6.917,1.715c-6.36-1.13-6.922-5.466-6.922-5.466s-3.113,4.437-8.3,3.515-5.747-6.673-5.747-6.673-3.3,4.558-10.3,3.315a11.649,11.649,0,0,1-6.518-3.617c.062-5.4,3.406-23.757,4.975-30.721.739-3.288,1.272-6.7,1.78-10.078,4.335,1.825,16.6,4.406,22.054,5.376,6.2,1.1,21.558,3.924,25.154,3.282" transform="translate(7.854 5.753)" fill="#ffbc00"/><path d="M164.354,140.048c-6.36-1.13-6.922-5.466-6.922-5.466s-3.113,4.437-8.3,3.515-5.748-6.673-5.748-6.673-3.3,4.558-10.3,3.315a11.652,11.652,0,0,1-6.518-3.617c0,.052,0,.092,0,.134-.013,2.86,2.994,10.358,6.876,16.772,3.221,5.3,7.038,9.868,10.254,10.439,3.145.559,8.217-2.228,13.11-5.812,6.122-4.5,11.96-10.263,13.388-12.314a11.983,11.983,0,0,0,1.08-2.008,8.1,8.1,0,0,1-6.917,1.715" transform="translate(7.854 8.137)" fill="#ffc08d"/><path d="M143.04,130.18a.443.443,0,0,1-.36-.5c1.7-10.861,3.5-21.021,5.367-30.2a.443.443,0,0,1,.512-.348l.011,0a.443.443,0,0,1,.346.523c-1.863,9.166-3.666,19.314-5.36,30.161a.442.442,0,0,1-.506.369h-.01" transform="translate(8.854 6.151)" fill="#f1ac21"/><path d="M155.768,134.22a.443.443,0,0,1-.359-.514l5.363-30.181a.443.443,0,0,1,.873.155l-5.363,30.181a.444.444,0,0,1-.514.359" transform="translate(9.644 6.402)" fill="#f1ac21"/><path d="M156.4,151.666c-4.894,3.583-9.965,6.37-13.111,5.812-3.215-.571-7.032-5.134-10.253-10.439,3.085.425,7.708,1.1,11.734,1.817,3.676.653,8.236,1.855,11.631,2.81" transform="translate(8.256 9.125)" fill="#1a0304"/><path d="M145.568,67.851a17.777,17.777,0,0,1,4.268-1.3,18.122,18.122,0,0,1,5.4-.137,3.193,3.193,0,0,1,1.62.55,1.689,1.689,0,0,1,.59.93,1.556,1.556,0,0,1-.147,1.089,1.98,1.98,0,0,1-1.13.868,5.505,5.505,0,0,1-1.437.22c-1.328.079-2.662.105-3.975.307a14.414,14.414,0,0,0-3.632,1.045,11.878,11.878,0,0,1-2.069.822,2.888,2.888,0,0,1-.8.078,1.823,1.823,0,0,1-.775-.209A1.66,1.66,0,0,1,142.673,71a1.894,1.894,0,0,1,.257-1.365,3.607,3.607,0,0,1,1.364-1.142q.623-.35,1.274-.645Z" transform="translate(8.852 4.113)" fill="#f9aabe"/><path d="M135.065,89.62a4.337,4.337,0,0,0-.207-1.178,2.074,2.074,0,0,0-.238-.5,1.212,1.212,0,0,0-.4-.377,1.076,1.076,0,0,0-.838-.08,1.3,1.3,0,0,0-.684.5,1.846,1.846,0,0,0-.311.889,3.847,3.847,0,0,0,.042.949,3.662,3.662,0,0,0,.165.723,1.649,1.649,0,0,0,.386.627,1.249,1.249,0,0,0,.717.349,1.146,1.146,0,0,0,.774-.186,1.383,1.383,0,0,0,.518-.775,2.906,2.906,0,0,0,.075-.944Z" transform="translate(8.215 5.426)" fill="#fff"/><path d="M132.953,144.512a18.922,18.922,0,0,1-1.176-2.116,8.1,8.1,0,0,1-.841-2.6,3.41,3.41,0,0,1,.015-.913,1.975,1.975,0,0,1,.324-.821,1.494,1.494,0,0,1,.951-.6,1.657,1.657,0,0,1,1.126.219,2.79,2.79,0,0,1,.957,1.056,13.731,13.731,0,0,1,.611,1.331c.456,1.049,1.022,2.043,1.5,3.083a5.6,5.6,0,0,1,.356.936,2.277,2.277,0,0,1,.053.985,1.587,1.587,0,0,1-.843,1.109,1.743,1.743,0,0,1-1.376.039,2.1,2.1,0,0,1-.643-.389,3.482,3.482,0,0,1-.51-.583q-.261-.357-.5-.729Z" transform="translate(8.124 8.529)" fill="#ffdcbf"/></g></g></g></g></svg>