<svg xmlns="http://www.w3.org/2000/svg" xmlns:xlink="http://www.w3.org/1999/xlink" width="280" height="280" viewBox="0 0 280 280"><defs><clipPath id="a"><rect width="280" height="280" transform="translate(3118 6842)" fill="#fff" stroke="#707070" stroke-width="1"/></clipPath></defs><g transform="translate(-3118 -6842)" clip-path="url(#a)"><g transform="translate(3184.214 6837.333) rotate(24)"><g transform="translate(0 0)"><path d="M40.345,20.175A20.173,20.173,0,1,1,20.173,0,20.173,20.173,0,0,1,40.345,20.175" transform="translate(47.732 144.016)" fill="#fcb82e"/><path d="M40.346,20.175A20.173,20.173,0,1,1,20.172,0,20.174,20.174,0,0,1,40.346,20.175" transform="translate(181.77 144.016)" fill="#fcb82e"/><path d="M40.347,20.172A20.174,20.174,0,1,1,20.173,0,20.174,20.174,0,0,1,40.347,20.172" transform="translate(117.033 154.001)" fill="#fcb82e"/><path d="M8.739,0A8.74,8.74,0,0,0,0,8.741v3.206a31.361,31.361,0,0,0,8.739,1.165,31.352,31.352,0,0,0,8.74-1.165V8.741A8.739,8.739,0,0,0,8.739,0" transform="translate(127.463 23.314)" fill="#413e63"/><path d="M224.252,43.511c0,24.03-50.2,43.51-112.126,43.51S0,67.541,0,43.511,50.2,0,112.126,0,224.252,19.48,224.252,43.511" transform="translate(25.08 92.827)" fill="#413e63"/><path d="M274.412,38.438c0,21.228-61.429,38.438-137.206,38.438S0,59.665,0,38.438,61.429,0,137.206,0,274.412,17.209,274.412,38.438" transform="translate(0 82.289)" fill="#dbeccc"/><path d="M150.725,21.113c0,11.66-33.743,21.113-75.364,21.113S0,32.773,0,21.113,33.741,0,75.361,0s75.364,9.453,75.364,21.113" transform="translate(64.485 85.721)" fill="#acdbcf"/><path d="M137.206,34.232C66.5,34.232,8.3,19.249.821,0A11.536,11.536,0,0,0,0,4.2C0,25.432,61.43,42.642,137.206,42.642S274.412,25.432,274.412,4.2a11.6,11.6,0,0,0-.819-4.2c-7.479,19.249-65.684,34.232-136.387,34.232" transform="translate(0 116.414)" fill="#f4efd7"/><path d="M53.843,0A53.844,53.844,0,0,0,0,53.844V73.586c15.288,4.526,33.84,7.18,53.843,7.18s38.557-2.654,53.845-7.18V53.844A53.845,53.845,0,0,0,53.843,0" transform="translate(83.363 33.992)" fill="#fcb82e"/><path d="M17.448,5.98c0,3.3-3.9,5.979-8.724,5.979S0,9.283,0,5.98,3.9,0,8.724,0s8.724,2.677,8.724,5.98" transform="translate(128.482 129.651)" fill="#fcb82e"/><path d="M17.449,5.979c0,3.3-3.906,5.98-8.724,5.98S0,9.283,0,5.979,3.906,0,8.725,0s8.724,2.677,8.724,5.979" transform="translate(69.538 121.967)" fill="#fcb82e"/><path d="M17.45,5.979c0,3.3-3.906,5.981-8.725,5.981S0,9.282,0,5.979,3.907,0,8.725,0,17.45,2.676,17.45,5.979" transform="translate(30.282 106.049)" fill="#fcb82e"/><path d="M0,5.979c0,3.3,3.907,5.98,8.724,5.98s8.725-2.676,8.725-5.98S13.544,0,8.724,0,0,2.677,0,5.979" transform="translate(184.493 121.967)" fill="#fcb82e"/><path d="M0,5.979c0,3.3,3.9,5.981,8.724,5.981s8.727-2.679,8.727-5.981S13.544,0,8.724,0,0,2.676,0,5.979" transform="translate(223.747 106.049)" fill="#fcb82e"/><path d="M28.544,26.658a2.7,2.7,0,0,1-2.511-1.727C19.49,7.9,3.025,5.455,2.327,5.359A2.691,2.691,0,0,1,3.039.024C3.864.132,23.339,2.918,31.057,23a2.695,2.695,0,0,1-2.513,3.659" transform="translate(142.615 39.907)" fill="#fdfadb"/><path d="M6.663,3.333A3.331,3.331,0,1,1,3.33,0,3.33,3.33,0,0,1,6.663,3.333" transform="translate(171.936 69.44)" fill="#fdfadb"/><path d="M.646,34.789H0V26.178L53.262,0l.284.579-52.9,26Z" transform="translate(29.959 109.914)" fill="#99cee3"/><path d="M50.64.646H0L2.012,0H50.64Z" transform="translate(32.723 95.166)" fill="#99cee3"/><path d="M.646,41.427H0l.032-8.548L15.539,0l.584.275L.646,33.089Z" transform="translate(100.695 116.275)" fill="#99cee3"/><path d="M53.544,34.789H52.9V26.581L0,.579.284,0l53.26,26.178Z" transform="translate(191.403 109.914)" fill="#99cee3"/><path d="M50.146.646H0V0H48.134Z" transform="translate(191.545 95.166)" fill="#99cee3"/><path d="M16.125,41.427h-.646V33.089L0,.275.585,0l15.54,32.945Z" transform="translate(158.089 116.275)" fill="#99cee3"/><rect width="1.94" height="29.272" transform="translate(135.232 4.72)" fill="#413e63"/><path d="M8.36,4.179A4.18,4.18,0,1,1,4.179,0,4.18,4.18,0,0,1,8.36,4.179" transform="translate(132.023 0)" fill="#413e63"/><path d="M69.339,47.492A51.676,51.676,0,0,1,17.84,0,53.7,53.7,0,0,0,0,40.029V59.771C15.289,64.3,33.84,66.95,53.844,66.95S92.4,64.3,107.689,59.771V40.029a53.928,53.928,0,0,0-.729-8.8A51.525,51.525,0,0,1,69.339,47.492" transform="translate(83.362 47.443)" fill="#f58a28"/><path d="M53.843,7.18C33.84,7.18,15.288,4.526,0,0V16.2c15.288,4.526,33.84,7.18,53.843,7.18S92.4,20.73,107.689,16.2V0C92.4,4.526,73.849,7.18,53.843,7.18" transform="translate(83.363 93.999)" fill="#514e78"/><rect width="0.645" height="16.139" transform="translate(94.13 96.889)" fill="#99cee3"/><rect width="0.647" height="16.139" transform="translate(111.858 100.275)" fill="#99cee3"/><rect width="0.649" height="16.139" transform="translate(180.477 96.889)" fill="#99cee3"/><rect width="0.646" height="16.139" transform="translate(162.748 100.275)" fill="#99cee3"/><rect width="0.645" height="16.139" transform="translate(135.881 101.245)" fill="#99cee3"/></g></g></g></svg>